# xmcd
#
# Track frame offsets:
#	150
#	24736
#	41370
#	52019
#	64341
#	77961
#	94236
#	105503
#	121451
#	129944
#
# Disc length: 1926 seconds
#
# Revision: 0
# Processed by: cddbd v1.5.1PL0 Copyright (c) Steve Scherf et al.
# Submitted via: dBpowerAMP V4.0
#
DISCID=8507840a
DTITLE=Rolando Santos - Himnos Con Cantos De Pajaros
DYEAR=1900
DGENRE=
TTITLE0=El Cuidara De Mi - His Eye Is On The Sparrow
TTITLE1=Te Quiero Mi Señor - I Need Thee Every Hour
TTITLE2=Perdido, Fui A Mi Jesus - At The Cross
TTITLE3=En Jesucristo, Martir De Paz - Blessed Assurance Jesus Is Mine
TTITLE4=Yo Te Seguire - I Will Follow Thee
TTITLE5=En Presencia Estar De Cristo - Face To Face
TTITLE6=Cristo Fue A Preparar Un Lugar - The Home Over Thee
TTITLE7=Cristo Es Mi Amante Salvador - Jesus Is All The World To Me
TTITLE8=Roca De La Eternidad - Rock Of Ages
TTITLE9=Mas Alla Del Sol - Beyond The Sun
EXTD=
EXTT0=
EXTT1=
EXTT2=
EXTT3=
EXTT4=
EXTT5=
EXTT6=
EXTT7=
EXTT8=
EXTT9=
PLAYORDER=
